<svg width="32" height="32" viewBox="0 0 32 32" fill="none" xmlns="http://www.w3.org/2000/svg">
<path d="M6.19971 11.121C6.19971 6.0838 10.5873 2 15.9997 2C21.4121 2 25.7997 6.0838 25.7997 11.121C25.7997 16.119 22.6721 21.95 17.7917 24.036C17.2248 24.2763 16.6154 24.4001 15.9997 24.4001C15.384 24.4001 14.7746 24.2763 14.2077 24.036C9.32731 21.95 6.19971 16.1176 6.19971 11.121Z" stroke="black" stroke-width="2.5"/>
<path d="M18.7997 11.8C18.7997 12.5426 18.5047 13.2548 17.9796 13.7799C17.4545 14.305 16.7423 14.6 15.9997 14.6C15.2571 14.6 14.5449 14.305 14.0198 13.7799C13.4947 13.2548 13.1997 12.5426 13.1997 11.8C13.1997 11.0574 13.4947 10.3452 14.0198 9.8201C14.5449 9.295 15.2571 9 15.9997 9C16.7423 9 17.4545 9.295 17.9796 9.8201C18.5047 10.3452 18.7997 11.0574 18.7997 11.8Z" stroke="black" stroke-width="2.5"/>
<path d="M28.544 20.8999C29.4764 21.7427 30 22.6947 30 23.6999C30 27.1789 23.7322 29.9999 16 29.9999C8.2678 29.9999 2 27.1789 2 23.6999C2 22.6947 2.5236 21.7427 3.456 20.8999" stroke="black" stroke-width="2.5" stroke-linecap="round"/>
</svg>
