<svg width="30" height="36" viewBox="0 0 30 36" fill="none" xmlns="http://www.w3.org/2000/svg">
<path d="M15.8118 15.5998H24.7498M21.4996 27.5999L16.6244 34M16.6244 34H8.49889M16.6244 34H24.7498M9.28219 27.5999H24.7043C26.5244 27.5999 28 26.1727 28 24.4111C28 21.9999 24.7043 21.2223 24.7043 21.2223C24.7043 21.2223 18.711 18.9534 11.7491 21.1999C11.7491 21.1999 11.5232 12.9966 8.02761 3.87167C7.33695 2.07325 5.08782 1.45884 3.43673 2.52285C2.90659 2.8615 2.49205 3.3492 2.2469 3.92267C2.00174 4.49614 1.93729 5.12891 2.0619 5.73889L6.04988 25.0351C6.20602 25.7638 6.61298 26.4171 7.20196 26.8844C7.79093 27.3518 8.52576 27.6045 9.28219 27.5999Z" stroke="black" stroke-width="2.5" stroke-linecap="round" stroke-linejoin="round"/>
</svg>
