<svg width="38" height="32" viewBox="0 0 38 32" fill="none" xmlns="http://www.w3.org/2000/svg">
<path d="M34.951 9.11766L32.5941 12.838C33.7216 15.2044 34.2735 17.8282 34.2006 20.4743C34.1276 23.1203 33.4319 25.706 32.176 27.9996H5.83271C4.20035 25.0195 3.52396 21.5652 3.9038 18.1487C4.28363 14.7323 5.69949 11.5356 7.94146 9.0325C10.1834 6.52945 13.1322 4.8533 16.3505 4.25255C19.5689 3.6518 22.8855 4.15842 25.8088 5.69731L29.344 3.21705C25.5988 0.662625 21.1189 -0.423393 16.6892 0.149285C12.2595 0.721964 8.16257 2.91681 5.11626 6.34926C2.06995 9.7817 0.268555 14.2328 0.027711 18.9227C-0.213133 23.6126 1.12194 28.242 3.79899 32H34.2097C36.541 28.7222 37.8604 24.7704 37.9895 20.6783C38.1187 16.5863 37.0515 12.5511 34.932 9.11766H34.951Z" fill="black"/>
<path d="M16.3239 22.8191C16.6769 23.1911 17.0962 23.4862 17.5576 23.6875C18.0191 23.8888 18.5138 23.9924 19.0133 23.9924C19.5129 23.9924 20.0075 23.8888 20.469 23.6875C20.9305 23.4862 21.3497 23.1911 21.7028 22.8191L32.4606 5.8374L16.3239 17.1586C15.9704 17.5301 15.69 17.9713 15.4987 18.4569C15.3075 18.9426 15.209 19.4631 15.209 19.9889C15.209 20.5146 15.3075 21.0351 15.4987 21.5208C15.69 22.0064 15.9704 22.4476 16.3239 22.8191Z" fill="black"/>
</svg>
