<svg width="18" height="18" viewBox="0 0 18 18" fill="none" xmlns="http://www.w3.org/2000/svg">
<path d="M11.7755 6.29301L10.0965 0.807522C9.76527 -0.269174 8.23473 -0.269174 7.91492 0.807522L6.22448 6.29301H1.14173C0.0338058 6.29301 -0.42307 7.70971 0.47926 8.3444L4.63683 11.2911L3.0035 16.516C2.67227 17.57 3.90583 18.42 4.78532 17.7513L9 14.5779L13.2147 17.7627C14.0942 18.4313 15.3277 17.5813 14.9965 16.5273L13.3632 11.3025L17.5207 8.35573C18.4231 7.70971 17.9662 6.30434 16.8583 6.30434H11.7755V6.29301Z" fill="#4A4A4A"/>
<mask id="mask0_96_148" style="mask-type:alpha" maskUnits="userSpaceOnUse" x="0" y="0" width="18" height="18">
<path d="M11.7755 6.29301L10.0965 0.807522C9.76527 -0.269174 8.23473 -0.269174 7.91492 0.807522L6.22448 6.29301H1.14173C0.0338057 6.29301 -0.42307 7.70971 0.47926 8.3444L4.63683 11.2911L3.0035 16.516C2.67227 17.57 3.90583 18.42 4.78532 17.7513L9 14.5779L13.2147 17.7627C14.0942 18.4313 15.3277 17.5813 14.9965 16.5273L13.3632 11.3025L17.5207 8.35573C18.4231 7.70971 17.9662 6.30434 16.8583 6.30434H11.7755V6.29301Z" fill="black"/>
</mask>
<g mask="url(#mask0_96_148)">
<path d="M13.1342 4.53359L2.28341 18.7006H1.14122L-2.85645 10.2004C-2.66608 8.50036 -2.28535 4.98693 -2.28535 4.53359C-2.28535 4.08024 2.28341 0.189021 4.56779 -1.69992L11.4209 -2.2666L13.1342 4.53359Z" fill="black"/>
</g>
</svg>
